<svg xmlns="http://www.w3.org/2000/svg" width="80" height="80" preserveAspectRatio="xMidYMid">
  <path d="M40 20.44c6.37 0 7.13.02 9.64.13 2.33.11 3.6.5 4.43.83a7.4 7.4 0 0 1 2.75 1.78 7.4 7.4 0 0 1 1.78 2.75c.33.84.72 2.1.83 4.43.11 2.51.13 3.27.13 9.64 0 6.37-.02 7.13-.13 9.64a13.2 13.2 0 0 1-.83 4.43 7.4 7.4 0 0 1-1.78 2.75 7.4 7.4 0 0 1-2.75 1.78c-.84.33-2.1.72-4.43.83-2.51.11-3.27.13-9.64.13-6.37 0-7.13-.02-9.64-.13a13.2 13.2 0 0 1-4.43-.83 7.4 7.4 0 0 1-2.75-1.78 7.4 7.4 0 0 1-1.78-2.75 13.2 13.2 0 0 1-.83-4.43c-.11-2.51-.13-3.27-.13-9.64 0-6.37.02-7.13.13-9.64.11-2.33.5-3.6.83-4.43a7.4 7.4 0 0 1 1.78-2.75 7.4 7.4 0 0 1 2.75-1.78c.84-.33 2.1-.72 4.43-.83 2.51-.11 3.27-.13 9.64-.13m0-4.3c-6.48 0-7.3.02-9.84.14-2.54.12-4.27.52-5.8 1.1a11.7 11.7 0 0 0-4.22 2.76 11.7 11.7 0 0 0-2.75 4.23c-.6 1.52-1 3.25-1.11 5.8-.12 2.54-.14 3.35-.14 9.83s.02 7.3.14 9.84c.12 2.54.52 4.27 1.1 5.8a11.7 11.7 0 0 0 2.76 4.22 11.7 11.7 0 0 0 4.23 2.75c1.52.6 3.25 1 5.8 1.11 2.54.12 3.35.14 9.83.14s7.3-.02 9.84-.14c2.54-.12 4.27-.52 5.8-1.1a11.7 11.7 0 0 0 4.22-2.76 11.7 11.7 0 0 0 2.75-4.23c.6-1.52 1-3.25 1.11-5.8.12-2.54.14-3.35.14-9.83s-.02-7.3-.14-9.84a17.52 17.52 0 0 0-1.1-5.8 11.7 11.7 0 0 0-2.76-4.22 11.7 11.7 0 0 0-4.23-2.75c-1.52-.6-3.25-1-5.8-1.11-2.54-.12-3.35-.14-9.83-.14zm0 11.6a12.25 12.25 0 1 0 0 24.51 12.25 12.25 0 0 0 0-24.5zm0 20.21a7.95 7.95 0 1 1 0-15.9 7.95 7.95 0 0 1 0 15.9zm15.6-20.69a2.86 2.86 0 1 1-5.72 0 2.86 2.86 0 0 1 5.72 0z" fill="#bc5fd3"/>
</svg>
