<svg width="30" height="28" viewBox="0 0 30 28" fill="none" xmlns="http://www.w3.org/2000/svg">
<path d="M14.9982 0.0978479C7.15934 0.0978479 0.802353 6.47972 0.802353 14.3524C0.802353 20.649 4.86994 25.9909 10.5136 27.8774C11.2234 28.0087 11.4825 27.5686 11.4825 27.1906C11.4825 26.8516 11.4701 25.9554 11.463 24.7663C7.51431 25.627 6.6802 22.855 6.6802 22.855C6.03602 21.2081 5.10425 20.7697 5.10425 20.7697C3.81401 19.8858 5.20002 19.9036 5.20002 19.9036C6.62513 20.0048 7.37406 21.3731 7.37406 21.3731C8.64122 23.5507 10.6981 22.9224 11.5073 22.5568C11.6352 21.6357 12.0025 21.0075 12.4089 20.6508C9.25701 20.2905 5.94195 19.0677 5.94195 13.607C5.94195 12.0506 6.49557 10.778 7.40425 9.78067C7.25691 9.42039 6.77067 7.9705 7.54261 6.00939C7.54261 6.00939 8.73529 5.62611 11.447 7.46998C12.5793 7.15409 13.7932 6.99614 15.0018 6.99084C16.2068 6.99794 17.4225 7.15409 18.5566 7.47177C21.2665 5.62782 22.4573 6.01118 22.4573 6.01118C23.2311 7.974 22.7448 9.42219 22.5993 9.78246C23.5097 10.7798 24.0581 12.0523 24.0581 13.6087C24.0581 19.0837 20.7394 20.2887 17.5768 20.6419C18.0862 21.082 18.5406 21.9516 18.5406 23.2809C18.5406 25.1869 18.5228 26.7238 18.5228 27.1906C18.5228 27.5722 18.7784 28.0158 19.4989 27.8756C25.1336 25.9873 29.1976 20.6472 29.1976 14.3524C29.1976 6.47972 22.8407 0.0978479 14.9982 0.0978479Z" fill="#423E37"/>
</svg>
