<svg width="27" height="27" viewBox="0 0 27 27" fill="none" xmlns="http://www.w3.org/2000/svg">
<path d="M13.5 2.9865C16.9239 2.9865 17.3324 2.99725 18.6815 3.05638C19.9339 3.1155 20.6165 3.32513 21.0626 3.5025C21.6206 3.70699 22.1257 4.03391 22.5408 4.45925C22.9661 4.8743 23.293 5.37938 23.4975 5.93738C23.6749 6.38888 23.8845 7.06613 23.9436 8.3185C24.0028 9.66763 24.0135 10.0761 24.0135 13.5C24.0135 16.9239 24.0028 17.3324 23.9436 18.6815C23.9325 19.4949 23.7816 20.3004 23.4975 21.0626C23.293 21.6206 22.9661 22.1257 22.5408 22.5408C22.1257 22.9661 21.6206 23.293 21.0626 23.4975C20.6111 23.6749 19.9339 23.8845 18.6815 23.9436C17.3324 24.0028 16.9239 24.0135 13.5 24.0135C10.0761 24.0135 9.66763 24.0028 8.3185 23.9436C7.50509 23.9325 6.69964 23.7816 5.93738 23.4975C5.37938 23.293 4.8743 22.9661 4.45925 22.5408C4.03391 22.1257 3.70699 21.6206 3.5025 21.0626C3.21839 20.3004 3.06748 19.4949 3.05638 18.6815C2.99725 17.3324 2.9865 16.9239 2.9865 13.5C2.9865 10.0761 2.99725 9.66763 3.05638 8.3185C3.1155 7.06613 3.32513 6.3835 3.5025 5.93738C3.70699 5.37938 4.03391 4.8743 4.45925 4.45925C4.8743 4.03391 5.37938 3.70699 5.93738 3.5025C6.38888 3.32513 7.06613 3.1155 8.3185 3.05638C9.66763 2.99725 10.0761 2.9865 13.5 2.9865ZM13.5 0.675251C10.017 0.675251 9.57625 0.686002 8.211 0.750502C6.84575 0.815002 5.91588 1.03 5.0935 1.34175C4.23858 1.66551 3.46452 2.17177 2.82525 2.82525C2.17305 3.46661 1.66862 4.24252 1.34713 5.09888C1.02463 5.91588 0.809627 6.84575 0.750502 8.21638C0.686002 9.58163 0.675251 10.017 0.675251 13.5C0.675251 16.983 0.686002 17.4237 0.750502 18.789C0.815002 20.1542 1.03 21.0841 1.34175 21.9065C1.66551 22.7614 2.17177 23.5355 2.82525 24.1747C3.46661 24.8269 4.24252 25.3314 5.09888 25.6529C5.91588 25.9754 6.84575 26.1904 8.21638 26.2495C9.58163 26.314 10.017 26.3248 13.5 26.3248C16.983 26.3248 17.4237 26.314 18.789 26.2495C20.1542 26.185 21.0841 25.97 21.9065 25.6582C22.7614 25.3345 23.5355 24.8282 24.1747 24.1747C24.8269 23.5334 25.3314 22.7575 25.6529 21.9011C25.9754 21.0841 26.1904 20.1543 26.2495 18.7836C26.314 17.4184 26.3248 16.983 26.3248 13.5C26.3248 10.017 26.314 9.57625 26.2495 8.211C26.2302 7.14587 26.0302 6.09174 25.6582 5.0935C25.3345 4.23858 24.8282 3.46452 24.1747 2.82525C23.5334 2.17305 22.7575 1.66862 21.9011 1.34713C21.0841 1.02463 20.1543 0.809627 18.7836 0.750502C17.4184 0.686002 16.983 0.675251 13.5 0.675251ZM13.5 6.91025C12.635 6.91025 11.7784 7.08063 10.9792 7.41166C10.1801 7.74269 9.45391 8.22789 8.84224 8.83956C8.23058 9.45122 7.74538 10.1774 7.41435 10.9766C7.08332 11.7757 6.91294 12.6323 6.91294 13.4973C6.91294 14.3623 7.08332 15.2189 7.41435 16.0181C7.74538 16.8173 8.23058 17.5434 8.84224 18.1551C9.45391 18.7667 10.1801 19.2519 10.9792 19.583C11.7784 19.914 12.635 20.0844 13.5 20.0844C15.2463 20.0844 16.921 19.3907 18.1559 18.1559C19.3907 16.921 20.0844 15.2463 20.0844 13.5C20.0844 11.7537 19.3907 10.079 18.1559 8.84414C16.921 7.60933 15.2463 6.91563 13.5 6.91563V6.91025ZM13.5 17.7731C12.3667 17.7731 11.2798 17.3229 10.4784 16.5216C9.67708 15.7202 9.22688 14.6333 9.22688 13.5C9.22688 12.3667 9.67708 11.2798 10.4784 10.4784C11.2798 9.67708 12.3667 9.22688 13.5 9.22688C14.6333 9.22688 15.7202 9.67708 16.5216 10.4784C17.3229 11.2798 17.7731 12.3667 17.7731 13.5C17.7731 14.6333 17.3229 15.7202 16.5216 16.5216C15.7202 17.3229 14.6333 17.7731 13.5 17.7731ZM21.885 6.65225C21.885 7.05996 21.723 7.45096 21.4347 7.73925C21.1465 8.02754 20.7555 8.1895 20.3478 8.1895C19.94 8.1895 19.549 8.02754 19.2607 7.73925C18.9725 7.45096 18.8105 7.05996 18.8105 6.65225C18.8105 6.24455 18.9725 5.85354 19.2607 5.56525C19.549 5.27696 19.94 5.115 20.3478 5.115C20.7555 5.115 21.1465 5.27696 21.4347 5.56525C21.723 5.85354 21.885 6.24455 21.885 6.65225Z" fill="#423E37"/>
</svg>
