<svg width="27" height="22" viewBox="0 0 27 22" fill="none" xmlns="http://www.w3.org/2000/svg">
<path d="M9.07163 4.399V20.706C9.07163 20.936 9.01038 21.1315 8.88788 21.2925C8.76538 21.4573 8.58571 21.5397 8.34888 21.5397C8.18146 21.5397 8.01813 21.5014 7.85888 21.4247L0.968249 18.1875C0.764082 18.0955 0.59054 17.9402 0.447624 17.7217C0.300624 17.5032 0.227123 17.2886 0.227123 17.0777V1.225C0.227123 1.041 0.278165 0.883834 0.380248 0.753501C0.478248 0.623168 0.621165 0.558001 0.808999 0.558001C0.947832 0.558001 1.16425 0.627001 1.45825 0.765001L9.02875 4.33C9.05733 4.35683 9.07163 4.37792 9.07163 4.39325V4.399ZM10.021 5.802L17.9284 17.8425L10.021 14.1452V5.802ZM26.7729 6.04925V20.706C26.7729 20.936 26.7035 21.1238 26.5646 21.2695C26.4258 21.4113 26.238 21.4822 26.0011 21.4822C25.7643 21.4822 25.5315 21.4228 25.3029 21.304L18.7736 18.245L26.7729 6.04925ZM26.7239 4.38175C26.7239 4.40858 25.458 6.35208 22.9264 10.2122L18.4735 16.9972L12.6976 8.17675L17.4996 0.851251C17.667 0.590584 17.9243 0.460251 18.2714 0.460251C18.4061 0.460251 18.5348 0.489001 18.6573 0.546501L26.6688 4.30125C26.7096 4.31658 26.73 4.34342 26.73 4.38175H26.7239Z" fill="#423E37"/>
</svg>
