<svg width="24" height="24" viewBox="0 0 24 24" fill="none" xmlns="http://www.w3.org/2000/svg">
<g clip-path="url(#clip0)">
<path fill-rule="evenodd" clip-rule="evenodd" d="M16 22.62L12.48 15.82L10.41 16.84C8.17001 17.92 3.61001 9.02 5.81001 7.84L7.89001 6.82L4.39001 0L2.30001 1.04C0.650007 1.89 -0.0199933 3.7 6.65773e-06 5.96C0.0800067 12.9 6.81001 24.02 12.31 24C12.85 24 13.38 23.89 13.89 23.65L16 22.62ZM13.5 9C13.8978 9 14.2794 9.15804 14.5607 9.43934C14.842 9.72064 15 10.1022 15 10.5C15 10.8978 14.842 11.2794 14.5607 11.5607C14.2794 11.842 13.8978 12 13.5 12C13.1022 12 12.7207 11.842 12.4393 11.5607C12.158 11.2794 12 10.8978 12 10.5C12 10.1022 12.158 9.72064 12.4393 9.43934C12.7207 9.15804 13.1022 9 13.5 9ZM22.5 9C22.8978 9 23.2794 9.15804 23.5607 9.43934C23.842 9.72064 24 10.1022 24 10.5C24 10.8978 23.842 11.2794 23.5607 11.5607C23.2794 11.842 22.8978 12 22.5 12C22.1022 12 21.7207 11.842 21.4393 11.5607C21.158 11.2794 21 10.8978 21 10.5C21 10.1022 21.158 9.72064 21.4393 9.43934C21.7207 9.15804 22.1022 9 22.5 9ZM18 9C18.3978 9 18.7794 9.15804 19.0607 9.43934C19.342 9.72064 19.5 10.1022 19.5 10.5C19.5 10.8978 19.342 11.2794 19.0607 11.5607C18.7794 11.842 18.3978 12 18 12C17.6022 12 17.2207 11.842 16.9393 11.5607C16.658 11.2794 16.5 10.8978 16.5 10.5C16.5 10.1022 16.658 9.72064 16.9393 9.43934C17.2207 9.15804 17.6022 9 18 9Z" fill="#423E37"/>
</g>
<defs>
<clipPath id="clip0">
<rect width="24" height="24" fill="white"/>
</clipPath>
</defs>
</svg>
