<svg width="30" height="29" viewBox="0 0 30 29" fill="none" xmlns="http://www.w3.org/2000/svg">
<path d="M28.9382 16.88C28.9287 16.931 28.922 16.9826 28.912 17.0335L28.8607 16.7414C28.8888 16.7869 28.912 16.8343 28.9382 16.8802C29.0944 16.0613 29.1734 15.2305 29.1743 14.3978C29.1743 12.5493 28.7999 10.7558 28.0602 9.0676C27.3465 7.4368 26.3256 5.97219 25.0239 4.71477C23.724 3.45734 22.2079 2.47032 20.5218 1.78055C18.7758 1.06643 16.9206 0.704496 15.0083 0.704496C14.1071 0.704496 13.2043 0.786285 12.3259 0.949297C12.324 0.94975 12.3217 0.94975 12.3192 0.950203C12.3687 0.975465 12.4186 0.998008 12.467 1.02418L12.1691 0.97909C12.219 0.970027 12.2694 0.959832 12.3192 0.950203C11.1141 0.330781 9.75844 0 8.38641 0C6.14648 0 4.04027 0.843152 2.45625 2.37483C0.872695 3.90605 0 5.94194 0 8.10731C0.00076041 9.4828 0.363891 10.8354 1.05516 12.0377C1.06418 11.9881 1.07039 11.938 1.08035 11.8884L1.13168 12.1755C1.10508 12.1305 1.08176 12.0836 1.05516 12.0377C0.914165 12.817 0.842808 13.6067 0.841875 14.3978C0.841875 16.2468 1.21629 18.0398 1.95598 19.7285C2.66859 21.3597 3.69012 22.8233 4.99043 24.0808C6.29215 25.3383 7.80633 26.3267 9.4943 27.0146C11.2404 27.7301 13.0961 28.0925 15.0083 28.0925C15.8407 28.0925 16.675 28.019 17.4892 27.8794C17.4417 27.8537 17.3933 27.8303 17.3448 27.8032L17.6475 27.8546C17.5952 27.8642 17.5425 27.8702 17.4893 27.8794C18.7477 28.5679 20.169 28.9299 21.615 28.9302C23.8546 28.9302 25.9597 28.0883 27.5437 26.5563C29.1281 25.026 30 22.9896 30 20.8243C29.9992 19.4436 29.6337 18.086 28.9382 16.8802V16.88ZM15.0648 22.7844C10.0322 22.7844 7.78066 20.3925 7.78066 18.6001C7.78066 17.6806 8.48285 17.0363 9.45059 17.0363C11.6043 17.0363 11.0464 20.0256 15.0648 20.0256C17.122 20.0256 18.2579 18.9458 18.2579 17.8409C18.2579 17.1764 17.9188 16.4396 16.5642 16.1167L12.0879 15.0366C8.48285 14.1626 7.82859 12.2788 7.82859 10.5079C7.82859 6.83109 11.4098 5.45053 14.7731 5.45053C17.8712 5.45053 21.5234 7.10568 21.5234 9.31149C21.5234 10.2567 20.6767 10.8064 19.7093 10.8064C17.8712 10.8064 18.2095 8.34701 14.5071 8.34701C12.6698 8.34701 11.6522 9.15131 11.6522 10.3021C11.6522 11.4508 13.1032 11.8177 14.3631 12.095L17.6764 12.806C21.3057 13.5876 22.226 15.636 22.226 17.5653C22.226 20.5533 19.8533 22.7844 15.0648 22.7844ZM17.3448 27.8032C17.3933 27.8304 17.4417 27.8537 17.4893 27.8794C17.5425 27.8702 17.5952 27.8642 17.6475 27.8545L17.3448 27.8032ZM28.912 17.0335C28.922 16.9826 28.9287 16.9311 28.9382 16.8802C28.912 16.8342 28.8887 16.7869 28.8608 16.7414L28.912 17.0335ZM1.08035 11.8884C1.07039 11.938 1.06418 11.9881 1.05516 12.0377C1.08176 12.0836 1.10508 12.1305 1.13168 12.1755L1.08035 11.8884ZM12.467 1.02418C12.4186 0.998008 12.3687 0.975465 12.3193 0.950203C12.2694 0.959832 12.219 0.969914 12.1691 0.97909L12.467 1.02418Z" fill="#423E37"/>
</svg>
