<svg width="34" height="16" viewBox="0 0 34 16" fill="none" xmlns="http://www.w3.org/2000/svg">
<path d="M0.785001 9.4145C0.721751 9.4145 0.670001 9.46625 0.658501 9.541L0.411251 11.381L0.658501 13.198C0.664251 13.2728 0.716001 13.3245 0.790751 13.3245C0.854001 13.3245 0.905751 13.2728 0.923001 13.198L1.2105 11.3868L0.923001 9.54675C0.911501 9.46625 0.854001 9.4145 0.790751 9.4145H0.785001ZM2.1535 8.40825C2.142 8.32775 2.0845 8.27025 2.0155 8.27025C1.9465 8.27025 1.889 8.32775 1.8775 8.40825L1.54975 11.3868L1.8775 14.2963C1.889 14.3768 1.9465 14.4343 2.0155 14.4343C2.0845 14.4343 2.142 14.3768 2.1535 14.302L2.52725 11.3868L2.1535 8.40825ZM7.294 5.65975C7.22832 5.66115 7.16563 5.68747 7.11865 5.73339C7.07167 5.77931 7.04391 5.84137 7.041 5.907L6.78225 11.3868L7.041 14.9288C7.04675 15.0668 7.156 15.176 7.294 15.176C7.42625 15.176 7.5355 15.0668 7.54125 14.9288L7.8345 11.3868L7.547 5.907C7.5441 5.84137 7.51634 5.77931 7.46935 5.73339C7.42237 5.68747 7.35968 5.66115 7.294 5.65975ZM4.63175 7.563C4.52825 7.563 4.44775 7.6435 4.43625 7.75275L4.14875 11.3868L4.43625 14.9C4.44775 15.0093 4.52825 15.0898 4.63175 15.0898C4.73525 15.0898 4.81575 15.0093 4.82725 14.9L5.16075 11.3868L4.82725 7.75275C4.81575 7.6435 4.73525 7.563 4.63175 7.563ZM9.9965 15.176C10.0769 15.1745 10.1535 15.1419 10.2104 15.0851C10.2672 15.0283 10.2998 14.9516 10.3013 14.8713L10.5543 11.3868L10.3013 4.09C10.2998 4.00964 10.2672 3.93298 10.2104 3.87614C10.1535 3.81931 10.0769 3.78673 9.9965 3.78525C9.91514 3.78524 9.83702 3.81716 9.77895 3.87415C9.72088 3.93115 9.68751 4.00865 9.686 4.09L9.46175 11.3925L9.69175 14.8713C9.69175 15.0438 9.82975 15.176 9.9965 15.176ZM15.528 15.1933C15.6389 15.1918 15.7448 15.1471 15.8232 15.0687C15.9016 14.9903 15.9463 14.8844 15.9477 14.7735L16.126 11.3925L15.9535 2.963C15.952 2.85115 15.9065 2.7444 15.8269 2.66584C15.7472 2.58728 15.6399 2.54324 15.528 2.54325C15.4171 2.54474 15.3112 2.58944 15.2328 2.66784C15.1544 2.74624 15.1097 2.85214 15.1082 2.963L14.9472 11.3868L15.1082 14.7793C15.1112 14.8891 15.1566 14.9936 15.2348 15.0707C15.313 15.1479 15.4181 15.1918 15.528 15.1933ZM12.7393 15.1818C12.8359 15.1818 12.9286 15.1438 12.9975 15.076C13.0663 15.0082 13.1057 14.9161 13.1072 14.8195L13.32 11.3925L13.1015 4.03825C13.1 3.94264 13.0614 3.85136 12.9938 3.78374C12.9261 3.71613 12.8349 3.67748 12.7393 3.676C12.6436 3.67748 12.5524 3.71613 12.4847 3.78374C12.4171 3.85136 12.3785 3.94264 12.377 4.03825L12.1815 11.3925L12.377 14.8195C12.377 15.0208 12.538 15.1818 12.7393 15.1818ZM5.95425 15.1473C6.01331 15.1473 6.07013 15.1247 6.11295 15.084C6.15577 15.0433 6.1813 14.9877 6.18425 14.9288L6.49475 11.3868L6.1785 8.01725C6.17561 7.95925 6.15089 7.90448 6.10929 7.86395C6.0677 7.82343 6.01231 7.80013 5.95425 7.79875C5.8972 7.80154 5.84323 7.82546 5.80284 7.86585C5.76245 7.90623 5.73854 7.9602 5.73575 8.01725L5.45975 11.3868L5.73575 14.9288C5.73854 14.9858 5.76245 15.0398 5.80284 15.0802C5.84323 15.1206 5.8972 15.1445 5.95425 15.1473ZM3.32075 14.9575C3.407 14.9575 3.476 14.8885 3.4875 14.7908L3.8325 11.3868L3.4875 7.8505C3.476 7.7585 3.407 7.6895 3.315 7.6895C3.2345 7.6895 3.15975 7.7585 3.154 7.8505L2.8435 11.3868L3.154 14.7908C3.15975 14.8828 3.22875 14.9518 3.32075 14.9518V14.9575ZM14.125 3.9175C14.0732 3.91674 14.0217 3.92629 13.9736 3.9456C13.9255 3.96491 13.8817 3.99359 13.8448 4.02997C13.8079 4.06635 13.7786 4.10972 13.7586 4.15753C13.7385 4.20535 13.7282 4.25667 13.7283 4.3085L13.5557 11.3925L13.7283 14.7965C13.7283 14.901 13.7697 15.0011 13.8436 15.075C13.9175 15.1489 14.0177 15.1904 14.1221 15.1904C14.2266 15.1904 14.3268 15.1489 14.4006 15.075C14.4745 15.0011 14.516 14.901 14.516 14.7965L14.7115 11.3925L14.516 4.3085C14.516 4.2048 14.4748 4.10535 14.4015 4.03202C14.3282 3.9587 14.2287 3.9175 14.125 3.9175ZM8.63375 15.1875C8.70701 15.1846 8.77638 15.1538 8.82768 15.1014C8.87898 15.049 8.90834 14.9791 8.90975 14.9058L9.18575 11.3868L8.90975 4.65925C8.90834 4.58595 8.87898 4.51596 8.82768 4.46359C8.77638 4.41122 8.70701 4.38042 8.63375 4.3775C8.56045 4.37891 8.49046 4.40827 8.43809 4.45957C8.38571 4.51087 8.35492 4.58025 8.352 4.6535L8.1105 11.3868L8.352 14.9115C8.35633 14.9837 8.38774 15.0517 8.43997 15.1018C8.4922 15.1519 8.56139 15.1804 8.63375 15.1818V15.1875ZM11.6927 14.854L11.9227 11.3925L11.6927 3.8485C11.6913 3.76051 11.6557 3.67654 11.5934 3.61432C11.5312 3.55209 11.4472 3.51648 11.3593 3.515C11.2703 3.51499 11.1848 3.54994 11.1214 3.61232C11.0579 3.67471 11.0215 3.75953 11.02 3.8485L10.813 11.3868L11.02 14.854C11.023 14.942 11.06 15.0253 11.1233 15.0865C11.1866 15.1476 11.2712 15.1818 11.3593 15.1818C11.4472 15.1803 11.5312 15.1447 11.5934 15.0824C11.6557 15.0202 11.6913 14.9362 11.6927 14.8483V14.854ZM29.5005 7.03975C28.9427 7.03975 28.408 7.15475 27.925 7.356C27.8259 6.24435 27.4697 5.17098 26.8845 4.22064C26.2993 3.27031 25.5011 2.46905 24.5531 1.88014C23.605 1.29124 22.5331 0.930828 21.4218 0.827368C20.3106 0.723908 19.1905 0.880235 18.15 1.284C17.8395 1.399 17.759 1.5255 17.7533 1.767V14.716C17.7554 14.8367 17.8016 14.9524 17.8831 15.0414C17.9647 15.1303 18.076 15.1864 18.196 15.199H29.5062C30.588 15.199 31.6255 14.7697 32.391 14.0053C33.1564 13.2409 33.5872 12.204 33.5887 11.1223C33.5887 10.5861 33.4832 10.0553 33.278 9.55995C33.0728 9.06464 32.7721 8.61459 32.393 8.23549C32.0139 7.85639 31.5639 7.55568 31.0686 7.35052C30.5732 7.14535 30.0424 7.03975 29.5062 7.03975H29.5005ZM16.9137 1.74975C16.7943 1.75126 16.6802 1.79979 16.5963 1.88481C16.5123 1.96984 16.4652 2.08452 16.4653 2.204L16.2812 11.3925L16.4653 14.7275C16.4667 14.846 16.5145 14.9592 16.5983 15.043C16.682 15.1268 16.7953 15.1745 16.9137 15.176C17.161 15.176 17.3622 14.9748 17.3622 14.7275L17.5635 11.3925L17.3622 2.19825C17.3593 2.08077 17.3109 1.96901 17.2273 1.88645C17.1436 1.80389 17.0313 1.75695 16.9137 1.7555V1.74975Z" fill="#423E37"/>
</svg>
