<svg xmlns="http://www.w3.org/2000/svg" width="80" height="80">
  <path d="M11.8 42.46c-.11 0-.2.09-.22.22l-.43 3.2.43 3.16c.01.13.1.22.23.22.11 0 .2-.09.23-.22l.5-3.15-.5-3.2c-.02-.14-.12-.23-.23-.23zm2.38-1.75c-.02-.14-.12-.24-.24-.24s-.22.1-.24.24l-.57 5.18.57 5.06c.02.14.12.24.24.24s.22-.1.24-.23l.65-5.07zm8.94-4.78a.45.45 0 0 0-.44.43l-.45 9.53.45 6.16c.01.24.2.43.44.43.23 0 .42-.19.43-.43l.51-6.16-.5-9.53a.45.45 0 0 0-.44-.43zm-4.63 3.31c-.18 0-.32.14-.34.33l-.5 6.32.5 6.11c.02.19.16.33.34.33.18 0 .32-.14.34-.33l.58-6.11-.58-6.32c-.02-.19-.16-.33-.34-.33zm9.33 13.24a.54.54 0 0 0 .53-.53l.44-6.06-.44-12.69a.54.54 0 0 0-.53-.53.54.54 0 0 0-.54.53l-.39 12.7.4 6.05c0 .3.24.53.53.53zm9.62.03a.74.74 0 0 0 .73-.73l.31-5.88-.3-14.66a.74.74 0 0 0-.74-.73.74.74 0 0 0-.73.73l-.28 14.65.28 5.9a.74.74 0 0 0 .73.72zm-4.85-.02a.64.64 0 0 0 .64-.63l.37-5.96-.38-12.79a.64.64 0 0 0-.63-.63.64.64 0 0 0-.63.63l-.34 12.79.34 5.96c0 .35.28.63.63.63zm-11.8-.06a.4.4 0 0 0 .4-.38l.54-6.16-.55-5.86a.4.4 0 0 0-.39-.38.4.4 0 0 0-.38.38l-.48 5.86.48 6.16a.4.4 0 0 0 .38.38zm-4.58-.33c.15 0 .27-.12.29-.29l.6-5.92-.6-6.15c-.02-.16-.14-.28-.3-.28-.14 0-.27.12-.28.28l-.54 6.15.54 5.92c.01.16.13.28.29.28zM35 32.9a.68.68 0 0 0-.69.68l-.3 12.32.3 5.92a.68.68 0 0 0 1.37 0l.34-5.92-.34-12.32a.68.68 0 0 0-.68-.68zm-9.55 19.6a.5.5 0 0 0 .48-.49l.48-6.12-.48-11.7a.5.5 0 0 0-.48-.49.5.5 0 0 0-.49.48l-.42 11.71.42 6.13a.5.5 0 0 0 .49.47zm5.32-.58l.4-6.02-.4-13.12a.59.59 0 0 0-.58-.58.59.59 0 0 0-.59.58l-.36 13.11.36 6.03a.59.59 0 0 0 .59.57.59.59 0 0 0 .58-.58zm30.97-13.59c-.97 0-1.9.2-2.74.55A12.52 12.52 0 0 0 42 28.32c-.54.2-.68.42-.69.84v22.52a.86.86 0 0 0 .77.84h19.67a7.1 7.1 0 0 0 7.1-7.09 7.1 7.1 0 0 0-7.1-7.1zm-21.89-9.2a.79.79 0 0 0-.78.79l-.32 15.98.32 5.8a.79.79 0 0 0 .78.78c.43 0 .78-.35.78-.78l.35-5.8-.35-15.99a.79.79 0 0 0-.78-.77z" fill="#ff7f2a"/>
</svg>
